<svg width="2217" height="224" viewBox="0 0 2217 224" fill="none" xmlns="http://www.w3.org/2000/svg">
<g clip-path="url(#clip0_8_16)">
<path opacity="0.9" d="M-48 158.909L-32.6042 152.608C-15.2839 146.305 13.5833 140.273 44.375 152.608C75.167 165.481 105.958 181.686 136.75 175.655C167.542 169.083 198.333 140.273 229.125 135.772C291.671 135.772 300.473 156.274 338 162.898C370.716 162.898 375.989 137.843 427.731 123.168C458.523 114.435 484.208 121.367 515 135.772C545.791 150.176 573.607 178.086 604.398 175.655C635.19 173.584 650.586 142.074 691 135.772C721.792 129.47 744.886 131.541 775.677 142.074C806.469 152.608 828.6 175.655 882.486 169.352C913.277 163.321 937.333 131.27 968.12 125.239C998.92 118.666 1029.71 127.669 1060.5 142.074C1091.29 156.479 1122.08 178.086 1152.88 181.957C1183.67 186.188 1203 158.909 1236 142.074C1263.5 125.239 1289.5 117.43 1320 121.661C1364 130.709 1389.5 149.207 1422 156.608C1462 167.282 1488 170.586 1522.38 170.586C1563 163.186 1583.96 154.678 1614.75 142.074C1645.54 129.47 1707.7 131.541 1738.5 142.074C1769.29 152.247 1768.71 152.877 1799.5 169.352C1830.29 186.188 1861.08 198.792 1891.88 200.862C1922.67 203.294 1953.46 194.291 1984.25 179.886C2015.04 165.481 2045.83 143.874 2076.62 148.376C2107.42 152.877 2138.21 181.686 2153.6 196.721L2169 211.396V224H2153.6C2138.21 224 2107.42 224 2076.62 224C2045.83 224 2015.04 224 1984.25 224C1953.46 224 1922.67 224 1891.88 224C1861.08 224 1830.29 224 1799.5 224C1768.71 224 1737.92 224 1707.13 224C1676.33 224 1645.54 224 1614.75 224C1583.96 224 1553.17 224 1522.38 224C1491.58 224 1460.79 224 1430 224C1399.21 224 1368.42 224 1337.63 224C1306.83 224 1276.04 224 1245.25 224C1214.46 224 1183.67 224 1152.88 224C1122.08 224 1091.29 224 1060.5 224C1029.71 224 998.92 224 968.12 224C937.333 224 906.542 224 875.75 224C844.958 224 814.167 224 783.375 224C752.583 224 721.792 224 691 224C660.208 224 629.417 224 598.625 224C567.833 224 537.042 224 506.25 224C475.458 224 444.667 224 413.875 224C383.083 224 352.292 224 321.5 224C290.708 224 259.917 224 229.125 224C198.333 224 167.542 224 136.75 224C105.958 224 75.167 224 44.375 224C13.5833 224 -17.2083 224 -32.6042 224H-48V158.909Z" fill="#270306" fill-opacity="0.45"/>
<path d="M-562 156.134V134.28C-531.656 91.6183 -448.208 104.312 -410.277 128.26C-377.089 140.43 -362.865 161.368 -324.934 146.581C-287.003 131.793 -308.412 124.024 -261 112.083C-223.069 102.53 -167.931 131.663 -130 134.28C-92.069 136.897 -64.431 111.927 -26.5 105.384C11.431 98.8405 71.0412 97.9298 112 119.261C149.931 134.572 181.439 169.85 225.059 169.85C268.679 169.85 277 134.28 332.5 134.28C388 134.28 392.222 161.772 436 175.033C462.125 182.946 490.069 185.572 528 164.241C565.931 142.387 601.575 124.777 639.5 112.083C677.441 99.9126 731.5 100.779 784 112.083C821.929 126.87 879.357 144.025 917.285 155.803C955.226 167.581 993.155 156.134 1031.08 140.43C1069.01 124.727 1102.63 109.507 1121 101.275C1139.37 93.0428 1158.5 85.5477 1203.5 85.5477C1256 86.0106 1281 101.275 1325 119.1C1361.19 133.759 1379.38 150.108 1435.5 155.803C1472.5 159.558 1511 144.631 1567 112.083C1592.47 97.2809 1629 91.5608 1706 99.8871C1760.5 115.125 1789.69 137.813 1827.63 143.44C1865.56 149.591 1903.49 131.27 1941.42 119.1C1979.35 106.406 2017.27 101.171 2055.2 106.799C2093.14 112.949 2131.07 131.27 2150.03 140.43L2169 149.591V222.874H2150.03C2131.07 222.874 2093.14 222.874 2055.2 222.874C2017.27 222.874 1979.35 222.874 1941.42 222.874C1903.49 222.874 1865.56 222.874 1827.63 222.874C1789.69 222.874 1751.76 222.874 1713.83 222.874C1675.9 222.874 1637.98 222.874 1600.04 222.874C1562.11 222.874 1524.18 222.874 1486.25 222.874C1448.32 222.874 1410.39 222.874 1372.46 222.874C1334.52 222.874 1296.6 222.874 1258.67 222.874C1220.74 222.874 1182.81 222.874 1144.87 222.874C1106.94 222.874 1069.01 222.874 1031.08 222.874C993.155 222.874 955.226 222.874 917.285 222.874C879.357 222.874 841.429 222.874 803.5 222.874C765.571 222.874 727.643 222.874 689.702 222.874C651.777 222.874 613.848 222.874 575.917 222.874C537.986 222.874 500.056 222.874 462.125 222.874C424.194 222.874 386.264 222.874 348.333 222.874C310.402 222.874 272.473 222.874 234.542 222.874C196.611 222.874 158.681 222.874 120.75 222.874C82.819 222.874 44.8893 222.874 6.95831 222.874C-30.9727 222.874 -68.9024 222.874 -106.833 222.874C-144.764 222.874 -182.694 222.874 -220.625 222.874C-258.556 222.874 -296.486 222.874 -334.417 222.874C-372.348 222.874 -410.277 222.874 -448.208 222.874C-486.139 222.874 -524.069 222.874 -543.035 222.874H-562V156.134Z" fill="#270306" fill-opacity="0.2"/>
<path opacity="0.8" d="M-48 208.215L-32.6042 197.674C-17.2083 187.358 13.5833 165.936 44.375 164.808C75.167 163.681 105.958 181.72 136.75 187.188C167.542 192.431 210.622 191.078 241.414 181.889C272.205 172.475 269.896 158.003 321.5 151.673C352.292 147.897 383.083 150.151 413.875 162.159C444.667 173.828 475.458 195.25 506.25 205.566C537.042 216.108 567.833 216.108 598.625 208.215C629.417 200.323 660.208 184.539 691 181.889C721.792 179.466 752.583 189.612 783.375 187.188C814.167 184.539 844.958 168.754 875.75 167.458C906.542 165.936 937.333 179.466 968.13 189.781C998.92 200.323 1029.71 208.215 1060.5 205.566C1091.29 203.142 1111.31 184.37 1142.1 179.296C1172.89 174.223 1205.21 187.019 1236 187.188C1266.79 187.019 1254.5 179.071 1325 170.051C1352.5 166.533 1399.21 181.72 1430 179.296C1460.79 176.646 1491.58 168.754 1522.38 162.159C1553.17 155.789 1583.96 150.151 1614.75 155.619C1645.54 160.862 1675.87 170.051 1707.13 184.539C1738.38 199.027 1738.32 205.5 1769.11 205.5C1799.9 205.5 1839.15 185.835 1869.95 184.539C1914.84 184.539 1923.41 203.033 1954.21 200.215C1985 197.395 1996.07 182.114 2032.25 170.051C2061.5 155.563 2127.43 155.619 2153.6 170.051L2169 179.071V224H2153.6C2138.21 224 2107.42 224 2076.62 224C2045.83 224 2015.04 224 1984.25 224C1953.46 224 1922.67 224 1891.87 224C1861.08 224 1830.29 224 1799.5 224C1768.71 224 1737.92 224 1707.13 224C1676.33 224 1645.54 224 1614.75 224C1583.96 224 1553.17 224 1522.38 224C1491.58 224 1460.79 224 1430 224C1399.21 224 1368.42 224 1337.62 224C1306.83 224 1276.04 224 1245.25 224C1214.46 224 1183.67 224 1152.87 224C1122.08 224 1091.29 224 1060.5 224C1029.71 224 998.92 224 968.13 224C937.333 224 906.542 224 875.75 224C844.958 224 814.167 224 783.375 224C752.583 224 721.792 224 691 224C660.208 224 629.417 224 598.625 224C567.833 224 537.042 224 506.25 224C475.458 224 444.667 224 413.875 224C383.083 224 352.292 224 321.5 224C290.708 224 259.917 224 229.125 224C198.333 224 167.542 224 136.75 224C105.958 224 75.167 224 44.375 224C13.5833 224 -17.2083 224 -32.6042 224H-48V208.215Z" fill="#270306" fill-opacity="0.8"/>
</g>
<defs>
<clipPath id="clip0_8_16">
<rect width="2217" height="224" fill="white"/>
</clipPath>
</defs>
</svg>
