<svg width="1440" height="65" viewBox="0 0 1440 65" fill="none" xmlns="http://www.w3.org/2000/svg">
<path d="M0 34.1647V24.3952C16 5.324 60 10.9985 80 21.7041C97.5 27.1447 105 36.5048 125 29.8942C145 23.2837 147 15.8382 172 10.5C192 6.22946 220 17.7846 240 18.9546C260 20.1246 280 9.59453 300 6.66951C320 3.74448 340 9.59453 360 16.2051C380 23.0496 392 40.2963 415 40.2963C438 40.2963 454.5 28.7242 474.5 31.2397C510 35.7048 520 55.8099 540 51.7149C560 47.6199 580 39.4298 600 29.8942C620 20.1246 640 9.59453 660 3.91998C680 -1.52056 700 -1.52056 720 5.324C740 11.9346 760 25.9747 780 31.2397C800 36.5048 820 34.1647 840 27.1447C860 20.1246 880 9.59453 900 9.41903C920 9.59453 940 20.1246 960 24.3952C980 28.3147 1000 25.9747 1020 21.7041C1040 17.7846 1060 11.9346 1080 14.8596C1100 17.7846 1120 28.3147 1140 27.1447C1160 25.9747 1180 11.9346 1200 12.1101C1220 11.9346 1240 25.9747 1260 28.4902C1280 31.2397 1300 23.0496 1320 17.6091C1340 11.9346 1360 9.59453 1380 12.1101C1400 14.8596 1420 23.0497 1430 27.1447L1440 31.2397V64H1430C1420 64 1400 64 1380 64C1360 64 1340 64 1320 64C1300 64 1280 64 1260 64C1240 64 1220 64 1200 64C1180 64 1160 64 1140 64C1120 64 1100 64 1080 64C1060 64 1040 64 1020 64C1000 64 980 64 960 64C940 64 920 64 900 64C880 64 860 64 840 64C820 64 800 64 780 64C760 64 740 64 720 64C700 64 680 64 660 64C640 64 620 64 600 64C580 64 560 64 540 64C520 64 500 64 480 64C460 64 440 64 420 64C400 64 380 64 360 64C340 64 320 64 300 64C280 64 260 64 240 64C220 64 200 64 180 64C160 64 140 64 120 64C100 64 80 64 60 64C40 64 20 64 10 64H0V34.1647Z" fill="#270306" fill-opacity="0.2"/>
<path opacity="0.9" d="M0 32.2086L15.625 23.9859C26.875 20.9079 40 23.1065 60 29.1306C80 35.4185 100 43.3334 120 40.3873C140 37.1774 160 23.1065 180 20.9079C220.625 20.9079 222.5 37.152 246.875 40.3873C268.125 40.3873 277.642 19.672 311.25 12.5046C331.25 8.23936 340 10.7945 360 17.8299C380 24.8654 403.75 41.5745 423.75 40.3873C443.75 39.376 453.75 20.9079 480 17.8299C500 14.7519 515 18.8413 535 23.9859C555 29.1306 569.375 40.3873 604.375 37.3093C624.375 34.3632 640 18.7094 660 15.7633C680 12.5533 700 16.9505 720 23.9859C740 31.0214 760 41.5745 780 43.4653C800 45.532 820 39.376 840 37.3093C860 35.4185 880 37.1774 900 36.298C920 35.4185 940 31.0214 960 32.2086C980 33.2199 1000 39.376 1020 36.298C1040 33.2199 1060 20.9079 1080 14.7519C1100 8.59591 1120 8.59591 1140 13.7406C1160 18.7094 1180 29.2625 1200 37.3093C1220 45.532 1240 51.688 1260 52.6993C1280 53.8866 1300 49.4894 1320 42.454C1340 35.4185 1360 24.8654 1380 27.0639C1400 29.2625 1420 43.3334 1430 50.6766L1440 57.844V64H1430C1420 64 1400 64 1380 64C1360 64 1340 64 1320 64C1300 64 1280 64 1260 64C1240 64 1220 64 1200 64C1180 64 1160 64 1140 64C1120 64 1100 64 1080 64C1060 64 1040 64 1020 64C1000 64 980 64 960 64C940 64 920 64 900 64C880 64 860 64 840 64C820 64 800 64 780 64C760 64 740 64 720 64C700 64 680 64 660 64C640 64 620 64 600 64C580 64 560 64 540 64C520 64 500 64 480 64C460 64 440 64 420 64C400 64 380 64 360 64C340 64 320 64 300 64C280 64 260 64 240 64C220 64 200 64 180 64C160 64 140 64 120 64C100 64 80 64 60 64C40 64 20 64 10 64H0V32.2086Z" fill="#270306" fill-opacity="0.6"/>
<path opacity="0.8" d="M0 52.9964L10 45.4462C20 38.0575 40 22.7149 60 21.9074C80 21.0999 100 34.02 120 37.9364C140 41.6913 167.982 40.7223 187.982 34.1411C207.982 27.3985 206.482 17.0336 240 12.5C260 9.79488 280 11.4099 300 20.0098C320 28.3675 340 43.7101 360 51.0987C380 58.6489 400 58.6489 420 52.9964C440 47.3438 460 36.0388 480 34.1411C500 32.405 520 39.6725 540 37.9364C560 36.0388 580 24.7337 600 23.8051C620 22.7149 640 32.405 660 39.7937C680 47.3438 700 52.9964 720 51.0987C740 49.3626 753 35.9176 773 32.2839C793 28.6501 820 44.1803 840 44.3014C860 44.1803 880 32.405 900 32.2839C932.5 37.9364 940 34.02 960 32.2839C980 30.3862 1000 24.7337 1020 20.0098C1040 15.4474 1060 11.4099 1080 15.3263C1100 19.0812 1119.7 25.6623 1140 36.0388C1160.3 46.4152 1160.26 51.0514 1180.26 51.0514C1200.26 51.0514 1225.76 36.9674 1245.76 36.0388C1274.92 36.0388 1280.49 49.2845 1300.49 47.2657C1320.49 45.2469 1327.68 34.3022 1351.18 25.6623C1370.18 15.2859 1413 15.3263 1430 25.6623L1440 32.1229V64.3014H1430C1420 64.3014 1400 64.3014 1380 64.3014C1360 64.3014 1340 64.3014 1320 64.3014C1300 64.3014 1280 64.3014 1260 64.3014C1240 64.3014 1220 64.3014 1200 64.3014C1180 64.3014 1160 64.3014 1140 64.3014C1120 64.3014 1100 64.3014 1080 64.3014C1060 64.3014 1040 64.3014 1020 64.3014C1000 64.3014 980 64.3014 960 64.3014C940 64.3014 920 64.3014 900 64.3014C880 64.3014 860 64.3014 840 64.3014C820 64.3014 800 64.3014 780 64.3014C760 64.3014 740 64.3014 720 64.3014C700 64.3014 680 64.3014 660 64.3014C640 64.3014 620 64.3014 600 64.3014C580 64.3014 560 64.3014 540 64.3014C520 64.3014 500 64.3014 480 64.3014C460 64.3014 440 64.3014 420 64.3014C400 64.3014 380 64.3014 360 64.3014C340 64.3014 320 64.3014 300 64.3014C280 64.3014 260 64.3014 240 64.3014C220 64.3014 200 64.3014 180 64.3014C160 64.3014 140 64.3014 120 64.3014C100 64.3014 80 64.3014 60 64.3014C40 64.3014 20 64.3014 10 64.3014H0V52.9964Z" fill="#270306" fill-opacity="0.8"/>
</svg>
